<?xml version="1.0" encoding="UTF-8" standalone="no"?><!DOCTYPE svg PUBLIC "-//W3C//DTD SVG 1.1//EN" "http://www.w3.org/Graphics/SVG/1.1/DTD/svg11.dtd"><svg width="100%" height="100%" viewBox="0 0 1330 1050" version="1.1" xmlns="http://www.w3.org/2000/svg" xmlns:xlink="http://www.w3.org/1999/xlink" xml:space="preserve" xmlns:serif="http://www.serif.com/" style="fill-rule:evenodd;clip-rule:evenodd;stroke-linejoin:round;stroke-miterlimit:2;"><path d="M245.089,332.327c-16.747,3.538 -35.131,5.434 -55.192,5.434c-130.362,0 -189.897,-80.077 -189.897,-170.42c-0,-87.264 59.535,-167.341 189.897,-167.341c125.829,0 185.672,74.605 189.681,158.266c78.373,-59.461 179.797,-92.637 298.47,-92.637c259.213,1.316 400.004,135.548 425.005,372.429l-281.582,0c-6.579,-34.216 -31.579,-138.18 -151.317,-138.18c-135.528,-0 -178.95,131.6 -178.95,257.936c0,126.337 43.422,257.937 178.95,257.937c97.369,0 134.211,-67.116 152.633,-156.604l284.213,-0c0,189.504 -153.949,390.853 -428.952,390.853c-303.95,0 -476.32,-214.509 -476.32,-492.186c-0,-83.797 15.098,-159.726 43.361,-225.487Zm-105.489,-164.986c0,35.932 6.159,81.103 50.297,81.103c44.139,0 50.297,-45.171 50.297,-81.103c0,-33.879 -6.158,-78.024 -50.297,-78.024c-44.138,-0 -50.297,44.145 -50.297,78.024Z" style="fill:#fff;"/><rect x="0" y="0" width="1330" height="1050" style="fill:none;"/></svg>