<?xml version="1.0" encoding="UTF-8" standalone="no"?><!DOCTYPE svg PUBLIC "-//W3C//DTD SVG 1.1//EN" "http://www.w3.org/Graphics/SVG/1.1/DTD/svg11.dtd"><svg width="100%" height="100%" viewBox="0 0 266 252" version="1.1" xmlns="http://www.w3.org/2000/svg" xmlns:xlink="http://www.w3.org/1999/xlink" xml:space="preserve" xmlns:serif="http://www.serif.com/" style="fill-rule:evenodd;clip-rule:evenodd;stroke-linejoin:round;stroke-miterlimit:2;"><path d="M58.892,79.758c-4.024,0.85 -8.441,1.305 -13.262,1.305c-31.324,-0 -45.63,-19.219 -45.63,-40.901c0,-20.943 14.306,-40.162 45.63,-40.162c30.236,0 44.615,17.905 45.579,37.984c18.832,-14.271 43.203,-22.233 71.719,-22.233c62.286,0.316 96.116,32.532 102.123,89.383l-67.661,-0c-1.58,-8.212 -7.588,-33.163 -36.359,-33.163c-32.566,-0 -43,31.584 -43,61.904c0,30.321 10.434,61.905 43,61.905c23.396,0 32.249,-16.108 36.676,-37.585l68.293,0c0,45.481 -36.992,93.805 -103.072,93.805c-73.036,0 -114.455,-51.482 -114.455,-118.125c-0,-20.111 3.628,-38.334 10.419,-54.117Zm-25.348,-39.596c0,8.623 1.48,19.465 12.086,19.465c10.606,-0 12.086,-10.842 12.086,-19.465c0,-8.131 -1.48,-18.726 -12.086,-18.726c-10.606,0 -12.086,10.595 -12.086,18.726Z" style="fill:#fff;"/></svg>